<svg height="290" viewBox="0 0 331 290" width="331" xmlns="http://www.w3.org/2000/svg"><path d="m0 0h331v290h-331z" fill="#fff"/><ellipse cx="159.5" cy="144.5" fill="#fceae9" rx="113.5" ry="112.5"/><g fill="#b3b3b3"><path d="m381.1 694.468-254.068-.338a1.071 1.071 0 0 1 0-2.1l254.068.337a1.071 1.071 0 0 1 0 2.1z" transform="translate(-94.466 -449.911)"/><path d="m639.246 711.029-137.363-.151a.7.7 0 0 1 0-1.4l137.363.151a.7.7 0 0 1 0 1.4z" transform="translate(-392.617 -462.072)"/><path d="m339.777 710.7-52-.058a.7.7 0 0 1 0-1.4l52 .057a.7.7 0 0 1 0 1.4z" transform="translate(-210.968 -461.919)"/></g><g transform="translate(88.379 116.334)"><path d="m6.549 0h85.685a6.55 6.55 0 0 1 6.55 6.55v131.4a6.549 6.549 0 0 1 -6.549 6.549h-85.686a6.549 6.549 0 0 1 -6.549-6.545v-131.405a6.549 6.549 0 0 1 6.549-6.549z" fill="#c2d4ea" transform="matrix(0 1 -1 0 144.503 0)"/><rect fill="#2c4482" height="87.274" rx="5.508" width="144.503"/><path d="m864.2 408.834h-127.22a3.389 3.389 0 0 1 -3.389-3.4l.186-68.037a3.389 3.389 0 0 1 3.39-3.38h127.22a3.389 3.389 0 0 1 3.389 3.4l-.186 68.037a3.39 3.39 0 0 1 -3.39 3.38z" fill="#486ed1" transform="translate(-728.534 -328.26)"/><path d="m1065.2 375.314a177.8 177.8 0 0 1 -40.746 42.216q-4.105 3.033-8.385 5.815h58.355a3.389 3.389 0 0 0 3.389-3.38l.182-66.448a177.49 177.49 0 0 1 -12.795 21.797z" fill="#3b65c4" transform="translate(-938.754 -342.771)"/><g fill="#c2d4ea"><rect height="23.47" rx="2" transform="matrix(0 1 -1 0 85.898 93.004)" width="32.533"/><rect height="41.307" rx=".978" transform="matrix(0 1 -1 0 94.816 123.581)" width="1.957"/></g></g><g fill="#f00"><path d="m401.088 262.939a10.856 10.856 0 0 1 -10.5-13.357l26.719-112.439a10.84 10.84 0 0 1 17.99-5.374l84.016 79.359a10.84 10.84 0 0 1 -4.341 18.267l-110.734 33.079a10.987 10.987 0 0 1 -3.15.465zm26.807-132.633a9.468 9.468 0 0 0 -2.712.4 9.239 9.239 0 0 0 -6.409 6.786l-26.72 112.438a9.334 9.334 0 0 0 11.753 11.1l110.735-33.08a9.334 9.334 0 0 0 3.738-15.729l-84.015-79.359a9.236 9.236 0 0 0 -6.37-2.556z" transform="translate(-212.17 -83.75)"/><path d="m512.866 221.229a10.087 10.087 0 0 1 -6.654 16.154l-57.276 7.656-57.275 7.661a10.087 10.087 0 0 1 -10.661-13.845l22.008-53.43 22.008-53.43a10.087 10.087 0 0 1 17.317-2.315l35.267 45.775z" transform="translate(-205.137 -81.619)"/><path d="m417.23 168.15a.753.753 0 0 1 -.607-.307l-8.2-11.149a.753.753 0 0 1 1.213-.892l8.2 11.149a.753.753 0 0 1 -.606 1.2z" transform="translate(-224.744 -102.408)"/><path d="m372.3 177.195a.752.752 0 0 1 -.347-.085l-25.212-13.116a.753.753 0 1 1 .7-1.336l25.212 13.116a.753.753 0 0 1 -.348 1.421z" transform="translate(-181.459 -107.354)"/><path d="m387.579 216.839a.782.782 0 0 1 -.1-.006l-16.4-2.131a.753.753 0 0 1 .194-1.493l16.4 2.131a.753.753 0 0 1 -.1 1.5z" transform="translate(-198.288 -142.735)"/></g><path d="m530.273 252.128c3.7 4.944.861 12.123-5.109 12.921l-44.431 5.939-44.433 5.938c-5.971.8-10.6-5.383-8.324-11.126l16.9-42.736 16.9-42.736a7.7 7.7 0 0 1 13.433-1.8l27.531 36.8z" fill="#fff" transform="translate(-238.099 -116.286)"/><ellipse cx="5.879" cy="5.879" fill="#f00" rx="5.879" ry="5.879" transform="matrix(.984 -.178 .178 .984 235.394 133.936)"/><path d="m559.668 250.51 8.093 35.583a2.3 2.3 0 0 0 2.538 1.772 2.3 2.3 0 0 0 2-2.494l-3.346-36.338a4.71 4.71 0 0 0 -5.292-4.24 4.71 4.71 0 0 0 -3.993 5.717z" fill="#f00" transform="translate(-330.457 -164.784)"/><path d="m824.486 353.845h-.022l-11.949-.348a.753.753 0 0 1 -.731-.774.76.76 0 0 1 .774-.731l11.949.348a.753.753 0 0 1 -.021 1.506z" fill="#ff2e57" transform="translate(-506.727 -239.725)"/><path d="m806.671 322.31a.753.753 0 0 1 -.313-1.438l19.2-8.76a.753.753 0 1 1 .625 1.37l-19.2 8.76a.747.747 0 0 1 -.312.068z" fill="#ff2e57" transform="translate(-502.627 -211.808)"/><path d="m799.162 312.772a.753.753 0 0 1 -.529-1.289l8.056-7.945a.753.753 0 0 1 1.058 1.072l-8.056 7.945a.751.751 0 0 1 -.529.217z" fill="#ff2e57" transform="translate(-497.381 -205.714)"/></svg>